REM MD5 a6158238ed758cfd3ecf166a5b611f7c
FILE "King of Stallion (Japan).bin" BINARY
  TRACK 01 MODE2/2352
    INDEX 01 00:00:00
  TRACK 02 AUDIO
    INDEX 00 02:13:35
    INDEX 01 02:15:35
  TRACK 03 AUDIO
    INDEX 00 03:03:08
    INDEX 01 03:05:08
  TRACK 04 AUDIO
    INDEX 00 04:14:12
    INDEX 01 04:16:12
  TRACK 05 AUDIO
    INDEX 00 07:01:56
    INDEX 01 07:03:56
REM LEADOUT 10:04:65
